<?xml version="1.0" encoding="UTF-8" standalone="no"?>
<svg
   width="1006.44"
   height="844.79"
   version="1.1"
   id="svg1070"
   sodipodi:docname="Blank diagram.svg"
   inkscape:version="1.2.2 (732a01da63, 2022-12-09)"
   xmlns:inkscape="http://www.inkscape.org/namespaces/inkscape"
   xmlns:sodipodi="http://sodipodi.sourceforge.net/DTD/sodipodi-0.dtd"
   xmlns:xlink="http://www.w3.org/1999/xlink"
   xmlns="http://www.w3.org/2000/svg"
   xmlns:svg="http://www.w3.org/2000/svg"
   xmlns:lucid="lucid">
  <defs
     id="defs1074" />
  <sodipodi:namedview
     id="namedview1072"
     pagecolor="#ffffff"
     bordercolor="#000000"
     borderopacity="0.25"
     inkscape:showpageshadow="2"
     inkscape:pageopacity="0.0"
     inkscape:pagecheckerboard="0"
     inkscape:deskcolor="#d1d1d1"
     showgrid="false"
     inkscape:zoom="0.73406724"
     inkscape:cx="249.9771"
     inkscape:cy="362.36462"
     inkscape:window-width="1920"
     inkscape:window-height="1057"
     inkscape:window-x="-8"
     inkscape:window-y="-8"
     inkscape:window-maximized="1"
     inkscape:current-layer="g1068" />
  <g
     transform="translate(6998.273113684132 -447.33106905422346)"
     lucid:page-tab-id="0_0"
     id="g1068">
    <path
       d="M-6481.7 807.74a6 6 0 0 1 6-6h388a6 6 0 0 1 6 6v287a6 6 0 0 1-6 6h-388a6 6 0 0 1-6-6z"
       fill="#fff"
       id="path2" />
    <path
       d="M-6481.7 878.74v38h400v-38M-6481.7 952.74v38h400v-38M-6481.7 1026.74v38h400v-38"
       fill="#c3f7c8"
       id="path4" />
    <path
       d="M-6481.7 841.74v-34a6 6 0 0 1 6-6h388a6 6 0 0 1 6 6v34"
       fill="#54c45e"
       id="path6" />
    <path
       d="M-6481.7 807.74a6 6 0 0 1 6-6h388a6 6 0 0 1 6 6v287a6 6 0 0 1-6 6h-388a6 6 0 0 1-6-6zM-6481.7 841.74h400M-6426.27 841.74v259M-6215.64 841.74v259"
       stroke="#3a414a"
       stroke-width="2"
       fill="none"
       id="path8" />
    <use
       xlink:href="#a"
       transform="matrix(1,0,0,1,-6471.693589385151,801.7377704057183) translate(148.14814814814815 24.444444444444443)"
       id="use10" />
    <use
       xlink:href="#b"
       transform="matrix(1,0,0,1,-6476.693589385151,844.2377704057183) translate(8.185185185185187 20.444444444444443)"
       id="use12" />
    <use
       xlink:href="#c"
       transform="matrix(1,0,0,1,-6421.266344681699,844.2377704057183) translate(0 20.444444444444443)"
       id="use14" />
    <use
       xlink:href="#d"
       transform="matrix(1,0,0,1,-6210.638541340832,844.2377704057183) translate(0 20.444444444444443)"
       id="use16" />
    <use
       xlink:href="#e"
       transform="matrix(1,0,0,1,-6421.266344681699,881.2377704057183) translate(0 20.266666666666666)"
       id="use18" />
    <use
       xlink:href="#f"
       transform="matrix(1,0,0,1,-6210.638541340832,881.2377704057183) translate(0 20.444444444444443)"
       id="use20" />
    <use
       xlink:href="#g"
       transform="matrix(1,0,0,1,-6421.266344681699,918.2377704057183) translate(0 20.444444444444443)"
       id="use22" />
    <use
       xlink:href="#f"
       transform="matrix(1,0,0,1,-6210.638541340832,918.2377704057183) translate(0 20.444444444444443)"
       id="use24" />
    <use
       xlink:href="#h"
       transform="matrix(1,0,0,1,-6421.266344681699,955.2377704057183) translate(0 20.444444444444443)"
       id="use26" />
    <use
       xlink:href="#i"
       transform="matrix(1,0,0,1,-6210.638541340832,955.2377704057183) translate(0 20.444444444444443)"
       id="use28" />
    <use
       xlink:href="#j"
       transform="matrix(1,0,0,1,-6476.693589385151,992.2377704057183) translate(8.833333333333336 20.444444444444443)"
       id="use30" />
    <use
       xlink:href="#k"
       transform="matrix(1,0,0,1,-6421.266344681699,992.2377704057183) translate(0 20.444444444444443)"
       id="use32" />
    <use
       xlink:href="#d"
       transform="matrix(1,0,0,1,-6210.638541340832,992.2377704057183) translate(0 20.444444444444443)"
       id="use34" />
    <use
       xlink:href="#j"
       transform="matrix(1,0,0,1,-6476.693589385151,1029.2377704057183) translate(8.833333333333336 20.444444444444443)"
       id="use36" />
    <use
       xlink:href="#l"
       transform="matrix(1,0,0,1,-6421.266344681699,1029.2377704057183) translate(0 20.266666666666666)"
       id="use38" />
    <use
       xlink:href="#d"
       transform="matrix(1,0,0,1,-6210.638541340832,1029.2377704057183) translate(0 20.444444444444443)"
       id="use40" />
    <use
       xlink:href="#m"
       transform="matrix(1,0,0,1,-6421.266344681699,1066.2377704057183) translate(0 20.266666666666666)"
       id="use42" />
    <use
       xlink:href="#d"
       transform="matrix(1,0,0,1,-6210.638541340832,1066.2377704057183) translate(0 20.444444444444443)"
       id="use44" />
    <path
       d="M-6481.7 1146.12a6 6 0 0 1 6-6h388a6 6 0 0 1 6 6v139a6 6 0 0 1-6 6h-388a6 6 0 0 1-6-6z"
       fill="#fff"
       id="path46" />
    <path
       d="M-6481.7 1217.12v38h400v-38"
       fill="#c3f7c8"
       id="path48" />
    <path
       d="M-6481.7 1180.12v-34a6 6 0 0 1 6-6h388a6 6 0 0 1 6 6v34"
       fill="#54c45e"
       id="path50" />
    <path
       d="M-6481.7 1146.12a6 6 0 0 1 6-6h388a6 6 0 0 1 6 6v139a6 6 0 0 1-6 6h-388a6 6 0 0 1-6-6zM-6481.7 1180.12h400M-6431.45 1180.12v111M-6215.64 1180.12v111"
       stroke="#3a414a"
       stroke-width="2"
       fill="none"
       id="path52" />
    <use
       xlink:href="#n"
       transform="matrix(1,0,0,1,-6471.693589385151,1140.1173528992) translate(141.97530864197532 24.444444444444443)"
       id="use54" />
    <use
       xlink:href="#o"
       transform="matrix(1,0,0,1,-6476.693589385151,1182.6173528992) translate(5.685185185185187 20.444444444444443)"
       id="use56" />
    <use
       xlink:href="#k"
       transform="matrix(1,0,0,1,-6426.454285825447,1182.6173528992) translate(0 20.444444444444443)"
       id="use58" />
    <use
       xlink:href="#p"
       transform="matrix(1,0,0,1,-6210.638541340832,1182.6173528992) translate(0 20.444444444444443)"
       id="use60" />
    <use
       xlink:href="#q"
       transform="matrix(1,0,0,1,-6426.454285825447,1219.6173528992) translate(0 20.266666666666666)"
       id="use62" />
    <use
       xlink:href="#r"
       transform="matrix(1,0,0,1,-6210.638541340832,1219.6173528992) translate(0 20.444444444444443)"
       id="use64" />
    <use
       xlink:href="#g"
       transform="matrix(1,0,0,1,-6426.454285825447,1256.6173528992) translate(0 20.444444444444443)"
       id="use66" />
    <use
       xlink:href="#r"
       transform="matrix(1,0,0,1,-6210.638541340832,1256.6173528992) translate(0 20.444444444444443)"
       id="use68" />
    <path
       d="M-6997.27 995.12a6 6 0 0 1 6-6h388a6 6 0 0 1 6 6v139a6 6 0 0 1-6 6h-388a6 6 0 0 1-6-6z"
       fill="#fff"
       id="path70" />
    <path
       d="M-6997.27 1066.12v38h400v-38"
       fill="#c3f7c8"
       id="path72" />
    <path
       d="M-6997.27 1029.12v-34a6 6 0 0 1 6-6h388a6 6 0 0 1 6 6v34"
       fill="#54c45e"
       id="path74" />
    <path
       d="M-6997.27 995.12a6 6 0 0 1 6-6h388a6 6 0 0 1 6 6v139a6 6 0 0 1-6 6h-388a6 6 0 0 1-6-6zM-6997.27 1029.12h400M-6944.07 1029.12v111M-6731.36 1029.12v111"
       stroke="#3a414a"
       stroke-width="2"
       fill="none"
       id="path76" />
    <use
       xlink:href="#s"
       transform="matrix(1,0,0,1,-6987.273113684132,989.1173528991999) translate(145.64814814814815 24.444444444444443)"
       id="use78" />
    <use
       xlink:href="#o"
       transform="matrix(1,0,0,1,-6992.273113684132,1031.6173528992) translate(7.185185185185187 20.444444444444443)"
       id="use80" />
    <use
       xlink:href="#l"
       transform="matrix(1,0,0,1,-6939.069272328,1031.6173528992) translate(0 20.266666666666666)"
       id="use82" />
    <use
       xlink:href="#p"
       transform="matrix(1,0,0,1,-6726.363685434306,1031.6173528992) translate(0 20.444444444444443)"
       id="use84" />
    <use
       xlink:href="#t"
       transform="matrix(1,0,0,1,-6939.069272328,1068.6173528992) translate(0 20.444444444444443)"
       id="use86" />
    <use
       xlink:href="#r"
       transform="matrix(1,0,0,1,-6726.363685434306,1068.6173528992) translate(0 20.444444444444443)"
       id="use88" />
    <use
       xlink:href="#u"
       transform="matrix(1,0,0,1,-6939.069272328,1105.6173528992) translate(0 20.444444444444443)"
       id="use90" />
    <use
       xlink:href="#r"
       transform="matrix(1,0,0,1,-6726.363685434306,1105.6173528992) translate(0 20.444444444444443)"
       id="use92" />
    <path
       d="M-6481.7 454.33a6 6 0 0 1 6-6h388a6 6 0 0 1 6 6v287a6 6 0 0 1-6 6h-388a6 6 0 0 1-6-6z"
       fill="#fff"
       id="path94" />
    <path
       d="M-6481.7 525.33v38h400v-38M-6481.7 599.33v38h400v-38M-6481.7 673.33v38h400v-38"
       fill="#c3f7c8"
       id="path96" />
    <path
       d="M-6481.7 488.33v-34a6 6 0 0 1 6-6h388a6 6 0 0 1 6 6v34"
       fill="#54c45e"
       id="path98" />
    <path
       d="M-6481.7 454.33a6 6 0 0 1 6-6h388a6 6 0 0 1 6 6v287a6 6 0 0 1-6 6h-388a6 6 0 0 1-6-6zM-6481.7 488.33h400M-6427 488.33v259M-6214.55 488.33v259"
       stroke="#3a414a"
       stroke-width="2"
       fill="none"
       id="path100" />
    <use
       xlink:href="#v"
       transform="matrix(1,0,0,1,-6471.693589385151,448.33106905422346) translate(79.45185185185184 24.266666666666666)"
       id="use102" />
    <use
       xlink:href="#w"
       transform="matrix(1,0,0,1,-6471.693589385151,448.33106905422346) translate(181.14074074074074 24.266666666666666)"
       id="use104" />
    <use
       xlink:href="#o"
       transform="matrix(1,0,0,1,-6476.693589385151,490.83106905422346) translate(7.685185185185187 20.444444444444443)"
       id="use106" />
    <use
       xlink:href="#x"
       transform="matrix(1,0,0,1,-6422.007479130805,490.83106905422346) translate(0 20.266666666666666)"
       id="use108" />
    <use
       xlink:href="#p"
       transform="matrix(1,0,0,1,-6209.5518094471845,490.83106905422346) translate(0 20.444444444444443)"
       id="use110" />
    <use
       xlink:href="#y"
       transform="matrix(1,0,0,1,-6422.007479130805,527.8310690542235) translate(0 20.266666666666666)"
       id="use112" />
    <use
       xlink:href="#r"
       transform="matrix(1,0,0,1,-6209.5518094471845,527.8310690542235) translate(0 20.444444444444443)"
       id="use114" />
    <use
       xlink:href="#z"
       transform="matrix(1,0,0,1,-6476.693589385151,564.8310690542235) translate(8.333333333333336 20.444444444444443)"
       id="use116" />
    <use
       xlink:href="#A"
       transform="matrix(1,0,0,1,-6422.007479130805,564.8310690542235) translate(0 20.266666666666666)"
       id="use118" />
    <use
       xlink:href="#p"
       transform="matrix(1,0,0,1,-6209.5518094471845,564.8310690542235) translate(0 20.444444444444443)"
       id="use120" />
    <use
       xlink:href="#B"
       transform="matrix(1,0,0,1,-6422.007479130805,601.8310690542235) translate(0 20.266666666666666)"
       id="use122" />
    <use
       xlink:href="#p"
       transform="matrix(1,0,0,1,-6209.5518094471845,601.8310690542235) translate(0 20.444444444444443)"
       id="use124" />
    <use
       xlink:href="#C"
       transform="matrix(1,0,0,1,-6422.007479130805,638.8310690542235) translate(0 20.266666666666666)"
       id="use126" />
    <use
       xlink:href="#p"
       transform="matrix(1,0,0,1,-6209.5518094471845,638.8310690542235) translate(0 20.444444444444443)"
       id="use128" />
    <use
       xlink:href="#D"
       transform="matrix(1,0,0,1,-6422.007479130805,675.8310690542235) translate(0 20.266666666666666)"
       id="use130" />
    <use
       xlink:href="#E"
       transform="matrix(1,0,0,1,-6209.5518094471845,675.8310690542235) translate(0 20.444444444444443)"
       id="use132" />
    <use
       xlink:href="#z"
       transform="matrix(1,0,0,1,-6476.693589385151,712.8310690542235) translate(8.333333333333336 20.444444444444443)"
       id="use134" />
    <use
       xlink:href="#F"
       transform="matrix(1,0,0,1,-6422.007479130805,712.8310690542235) translate(0 20.266666666666666)"
       id="use136" />
    <use
       xlink:href="#p"
       transform="matrix(1,0,0,1,-6209.5518094471845,712.8310690542235) translate(0 20.444444444444443)"
       id="use138" />
    <path
       d="M-6997.27 454.33a6 6 0 0 1 6-6h388a6 6 0 0 1 6 6v213a6 6 0 0 1-6 6h-388a6 6 0 0 1-6-6z"
       fill="#fff"
       id="path140" />
    <path
       d="M-6997.27 525.33v38h400v-38M-6997.27 599.33v38h400v-38"
       fill="#c3f7c8"
       id="path142" />
    <path
       d="M-6997.27 488.33v-34a6 6 0 0 1 6-6h388a6 6 0 0 1 6 6v34"
       fill="#54c45e"
       id="path144" />
    <path
       d="M-6997.27 454.33a6 6 0 0 1 6-6h388a6 6 0 0 1 6 6v213a6 6 0 0 1-6 6h-388a6 6 0 0 1-6-6zM-6997.27 488.33h400M-6946.3 488.33v185M-6729.9 488.33v185"
       stroke="#3a414a"
       stroke-width="2"
       fill="none"
       id="path146" />
    <use
       xlink:href="#G"
       transform="matrix(1,0,0,1,-6987.273113684132,448.33106905422346) translate(140.34074074074073 24.266666666666666)"
       id="use148" />
    <use
       xlink:href="#o"
       transform="matrix(1,0,0,1,-6992.273113684132,490.83106905422346) translate(5.685185185185187 20.444444444444443)"
       id="use150" />
    <use
       xlink:href="#F"
       transform="matrix(1,0,0,1,-6941.29267567532,490.83106905422346) translate(0 20.266666666666666)"
       id="use152" />
    <use
       xlink:href="#p"
       transform="matrix(1,0,0,1,-6724.884732306479,490.83106905422346) translate(0 20.444444444444443)"
       id="use154" />
    <use
       xlink:href="#H"
       transform="matrix(1,0,0,1,-6941.29267567532,527.8310690542235) translate(0 20.266666666666666)"
       id="use156" />
    <use
       xlink:href="#r"
       transform="matrix(1,0,0,1,-6724.884732306479,527.8310690542235) translate(0 20.444444444444443)"
       id="use158" />
    <use
       xlink:href="#I"
       transform="matrix(1,0,0,1,-6941.29267567532,564.8310690542235) translate(0 20.266666666666666)"
       id="use160" />
    <use
       xlink:href="#r"
       transform="matrix(1,0,0,1,-6724.884732306479,564.8310690542235) translate(0 20.444444444444443)"
       id="use162" />
    <use
       xlink:href="#J"
       transform="matrix(1,0,0,1,-6941.29267567532,601.8310690542235) translate(0 20.266666666666666)"
       id="use164" />
    <use
       xlink:href="#r"
       transform="matrix(1,0,0,1,-6724.884732306479,601.8310690542235) translate(0 20.444444444444443)"
       id="use166" />
    <use
       xlink:href="#K"
       transform="matrix(1,0,0,1,-6941.29267567532,638.8310690542235) translate(0 20.266666666666666)"
       id="use168" />
    <use
       xlink:href="#r"
       transform="matrix(1,0,0,1,-6724.884732306479,638.8310690542235) translate(0 20.444444444444443)"
       id="use170" />
    <path
       d="M-6997.27 706.22a6 6 0 0 1 6-6h388a6 6 0 0 1 6 6v250a6 6 0 0 1-6 6h-388a6 6 0 0 1-6-6z"
       fill="#fff"
       id="path172" />
    <path
       d="M-6997.27 777.22v38h400v-38M-6997.27 851.22v38h400v-38M-6997.27 925.22v31a6 6 0 0 0 6 6h388a6 6 0 0 0 6-6v-31"
       fill="#c3f7c8"
       id="path174" />
    <path
       d="M-6997.27 740.22v-34a6 6 0 0 1 6-6h388a6 6 0 0 1 6 6v34"
       fill="#54c45e"
       id="path176" />
    <path
       d="M-6997.27 706.22a6 6 0 0 1 6-6h388a6 6 0 0 1 6 6v250a6 6 0 0 1-6 6h-388a6 6 0 0 1-6-6zM-6997.27 740.22h400M-6944.07 740.22v222M-6731.36 740.22v222"
       stroke="#3a414a"
       stroke-width="2"
       fill="none"
       id="path178" />
    <use
       xlink:href="#L"
       transform="matrix(1,0,0,1,-6987.273113684132,700.2242109767117) translate(116.07407407407406 24.266666666666666)"
       id="use180" />
    <use
       xlink:href="#M"
       transform="matrix(1,0,0,1,-6987.273113684132,700.2242109767117) translate(202.35555555555555 24.266666666666666)"
       id="use182" />
    <use
       xlink:href="#b"
       transform="matrix(1,0,0,1,-6992.273113684132,742.7242109767117) translate(7.185185185185187 20.444444444444443)"
       id="use184" />
    <use
       xlink:href="#N"
       transform="matrix(1,0,0,1,-6939.069272328,742.7242109767117) translate(0 20.266666666666666)"
       id="use186" />
    <use
       xlink:href="#d"
       transform="matrix(1,0,0,1,-6726.363685434306,742.7242109767117) translate(0 20.444444444444443)"
       id="use188" />
    <use
       xlink:href="#O"
       transform="matrix(1,0,0,1,-6939.069272328,779.7242109767117) translate(0 20.444444444444443)"
       id="use190" />
    <use
       xlink:href="#f"
       transform="matrix(1,0,0,1,-6726.363685434306,779.7242109767117) translate(0 20.444444444444443)"
       id="use192" />
    <use
       xlink:href="#c"
       transform="matrix(1,0,0,1,-6939.069272328,816.7242109767117) translate(0 20.444444444444443)"
       id="use194" />
    <use
       xlink:href="#d"
       transform="matrix(1,0,0,1,-6726.363685434306,816.7242109767117) translate(0 20.444444444444443)"
       id="use196" />
    <use
       xlink:href="#P"
       transform="matrix(1,0,0,1,-6939.069272328,853.7242109767117) translate(0 20.266666666666666)"
       id="use198" />
    <use
       xlink:href="#f"
       transform="matrix(1,0,0,1,-6726.363685434306,853.7242109767117) translate(0 20.444444444444443)"
       id="use200" />
    <use
       xlink:href="#Q"
       transform="matrix(1,0,0,1,-6939.069272328,890.7242109767117) translate(0 20.266666666666666)"
       id="use202" />
    <use
       xlink:href="#d"
       transform="matrix(1,0,0,1,-6726.363685434306,890.7242109767117) translate(0 20.444444444444443)"
       id="use204" />
    <use
       xlink:href="#R"
       transform="matrix(1,0,0,1,-6939.069272328,927.7242109767117) translate(0 20.266666666666666)"
       id="use206" />
    <use
       xlink:href="#d"
       transform="matrix(1,0,0,1,-6726.363685434306,927.7242109767117) translate(0 20.444444444444443)"
       id="use208" />
    <path
       d="M-6576.27 1047.53h75.34M-6596.27 1047.53h20m0 10v-20M-6483.36 1047.53h-20m20-10l-20 10m20 10l-20-10M-6502.7 859.78h-30.78a6 6 0 0 1-6-6v-89.06a6 6 0 0 0-6-6h-32.56M-6482.7 859.78h-20m0-10v20M-6595.6 758.72h20m-20 10l20-10m-20-10l20 10M-6060.7 859.78h61.37a6 6 0 0 0 6-6V586.75a6 6 0 0 0-6-6h-63.13M-6080.7 859.78h20m0 10v-20M-6080.02 580.75h20m-20 10l20-10m-20-10l20 10M-6576.27 506.56h30.8a6 6 0 0 1 6 6V723.5a6 6 0 0 0 6 6h32.54M-6596.27 506.56h20m0 10v-20M-6483.36 729.5h-20m20-10l-20 10m20 10l-20-10M-6060.7 1198.53h61.37a6 6 0 0 0 6-6v-178a6 6 0 0 0-6-6h-63.13M-6080.7 1198.53h20m0 10v-20M-6080.02 1008.52h20m-20 10l20-10m-20-10l20 10"
       stroke="#3a414a"
       stroke-width="3"
       fill="none"
       id="path210"
       style="stroke:#54c45e;stroke-opacity:1;stroke-width:4;stroke-dasharray:none" />
    <defs
       id="defs1066">
      <path
         fill="#fff"
         d="M24-248c93 1 206-16 204 79-1 75-69 88-152 82V0H24v-248zm52 121c47 0 100 7 100-41 0-47-54-39-100-39v80"
         id="S" />
      <path
         fill="#fff"
         d="M135-150c-39-12-60 13-60 57V0H25l-1-190h47c2 13-1 29 3 40 6-28 27-53 61-41v41"
         id="T" />
      <path
         fill="#fff"
         d="M110-194c64 0 96 36 96 99 0 64-35 99-97 99-61 0-95-36-95-99 0-62 34-99 96-99zm-1 164c35 0 45-28 45-65 0-40-10-65-43-65-34 0-45 26-45 65 0 36 10 65 43 65"
         id="U" />
      <path
         fill="#fff"
         d="M88-194c31-1 46 15 58 34l-1-101h50l1 261h-48c-2-10 0-23-3-31C134-8 116 4 84 4 32 4 16-41 15-95c0-56 19-97 73-99zm17 164c33 0 40-30 41-66 1-37-9-64-41-64s-38 30-39 65c0 43 13 65 39 65"
         id="V" />
      <path
         fill="#fff"
         d="M85 4C-2 5 27-109 22-190h50c7 57-23 150 33 157 60-5 35-97 40-157h50l1 190h-47c-2-12 1-28-3-38-12 25-28 42-61 42"
         id="W" />
      <path
         fill="#fff"
         d="M190-63c-7 42-38 67-86 67-59 0-84-38-90-98-12-110 154-137 174-36l-49 2c-2-19-15-32-35-32-30 0-35 28-38 64-6 74 65 87 74 30"
         id="X" />
      <path
         fill="#fff"
         d="M115-3C79 11 28 4 28-45v-112H4v-33h27l15-45h31v45h36v33H77v99c-1 23 16 31 38 25v30"
         id="Y" />
      <g
         id="a">
        <use
           transform="matrix(0.06172839506172839,0,0,0.06172839506172839,0,0)"
           xlink:href="#S"
           id="use219" />
        <use
           transform="matrix(0.06172839506172839,0,0,0.06172839506172839,14.814814814814813,0)"
           xlink:href="#T"
           id="use221" />
        <use
           transform="matrix(0.06172839506172839,0,0,0.06172839506172839,23.456790123456788,0)"
           xlink:href="#U"
           id="use223" />
        <use
           transform="matrix(0.06172839506172839,0,0,0.06172839506172839,36.9753086419753,0)"
           xlink:href="#V"
           id="use225" />
        <use
           transform="matrix(0.06172839506172839,0,0,0.06172839506172839,50.49382716049382,0)"
           xlink:href="#W"
           id="use227" />
        <use
           transform="matrix(0.06172839506172839,0,0,0.06172839506172839,64.01234567901234,0)"
           xlink:href="#X"
           id="use229" />
        <use
           transform="matrix(0.06172839506172839,0,0,0.06172839506172839,76.35802469135803,0)"
           xlink:href="#Y"
           id="use231" />
      </g>
      <path
         d="M30-248c87 1 191-15 191 75 0 78-77 80-158 76V0H30v-248zm33 125c57 0 124 11 124-50 0-59-68-47-124-48v98"
         id="Z" />
      <path
         d="M194 0L95-120 63-95V0H30v-248h33v124l119-124h40L117-140 236 0h-42"
         id="aa" />
      <g
         id="b">
        <use
           transform="matrix(0.06172839506172839,0,0,0.06172839506172839,0,0)"
           xlink:href="#Z"
           id="use236" />
        <use
           transform="matrix(0.06172839506172839,0,0,0.06172839506172839,14.814814814814813,0)"
           xlink:href="#aa"
           id="use238" />
      </g>
      <path
         d="M115-194c55 1 70 41 70 98S169 2 115 4C84 4 66-9 55-30l1 105H24l-1-265h31l2 30c10-21 28-34 59-34zm-8 174c40 0 45-34 45-75s-6-73-45-74c-42 0-51 32-51 76 0 43 10 73 51 73"
         id="ab" />
      <path
         d="M114-163C36-179 61-72 57 0H25l-1-190h30c1 12-1 29 2 39 6-27 23-49 58-41v29"
         id="ac" />
      <path
         d="M100-194c62-1 85 37 85 99 1 63-27 99-86 99S16-35 15-95c0-66 28-99 85-99zM99-20c44 1 53-31 53-75 0-43-8-75-51-75s-53 32-53 75 10 74 51 75"
         id="ad" />
      <path
         d="M85-194c31 0 48 13 60 33l-1-100h32l1 261h-30c-2-10 0-23-3-31C134-8 116 4 85 4 32 4 16-35 15-94c0-66 23-100 70-100zm9 24c-40 0-46 34-46 75 0 40 6 74 45 74 42 0 51-32 51-76 0-42-9-74-50-73"
         id="ae" />
      <path
         d="M84 4C-5 8 30-112 23-190h32v120c0 31 7 50 39 49 72-2 45-101 50-169h31l1 190h-30c-1-10 1-25-2-33-11 22-28 36-60 37"
         id="af" />
      <path
         d="M96-169c-40 0-48 33-48 73s9 75 48 75c24 0 41-14 43-38l32 2c-6 37-31 61-74 61-59 0-76-41-82-99-10-93 101-131 147-64 4 7 5 14 7 22l-32 3c-4-21-16-35-41-35"
         id="ag" />
      <path
         d="M59-47c-2 24 18 29 38 22v24C64 9 27 4 27-40v-127H5v-23h24l9-43h21v43h35v23H59v120"
         id="ah" />
      <path
         d="M-5 72V49h209v23H-5"
         id="ai" />
      <path
         d="M24-231v-30h32v30H24zM24 0v-190h32V0H24"
         id="aj" />
      <g
         id="c">
        <use
           transform="matrix(0.06172839506172839,0,0,0.06172839506172839,0,0)"
           xlink:href="#ab"
           id="use250" />
        <use
           transform="matrix(0.06172839506172839,0,0,0.06172839506172839,12.345679012345679,0)"
           xlink:href="#ac"
           id="use252" />
        <use
           transform="matrix(0.06172839506172839,0,0,0.06172839506172839,19.691358024691358,0)"
           xlink:href="#ad"
           id="use254" />
        <use
           transform="matrix(0.06172839506172839,0,0,0.06172839506172839,32.03703703703704,0)"
           xlink:href="#ae"
           id="use256" />
        <use
           transform="matrix(0.06172839506172839,0,0,0.06172839506172839,44.382716049382715,0)"
           xlink:href="#af"
           id="use258" />
        <use
           transform="matrix(0.06172839506172839,0,0,0.06172839506172839,56.72839506172839,0)"
           xlink:href="#ag"
           id="use260" />
        <use
           transform="matrix(0.06172839506172839,0,0,0.06172839506172839,67.8395061728395,0)"
           xlink:href="#ah"
           id="use262" />
        <use
           transform="matrix(0.06172839506172839,0,0,0.06172839506172839,74.01234567901234,0)"
           xlink:href="#ai"
           id="use264" />
        <use
           transform="matrix(0.06172839506172839,0,0,0.06172839506172839,86.35802469135803,0)"
           xlink:href="#aj"
           id="use266" />
        <use
           transform="matrix(0.06172839506172839,0,0,0.06172839506172839,91.23456790123457,0)"
           xlink:href="#ae"
           id="use268" />
      </g>
      <path
         d="M33 0v-248h34V0H33"
         id="ak" />
      <path
         d="M190 0L58-211 59 0H30v-248h39L202-35l-2-213h31V0h-41"
         id="al" />
      <path
         d="M127-220V0H93v-220H8v-28h204v28h-85"
         id="am" />
      <path
         d="M30 0v-248h187v28H63v79h144v27H63v87h162V0H30"
         id="an" />
      <path
         d="M143 4C61 4 22-44 18-125c-5-107 100-154 193-111 17 8 29 25 37 43l-32 9c-13-25-37-40-76-40-61 0-88 39-88 99 0 61 29 100 91 101 35 0 62-11 79-27v-45h-74v-28h105v86C228-13 192 4 143 4"
         id="ao" />
      <path
         d="M233-177c-1 41-23 64-60 70L243 0h-38l-65-103H63V0H30v-248c88 3 205-21 203 71zM63-129c60-2 137 13 137-47 0-61-80-42-137-45v92"
         id="ap" />
      <g
         id="d">
        <use
           transform="matrix(0.06172839506172839,0,0,0.06172839506172839,0,0)"
           xlink:href="#ak"
           id="use277" />
        <use
           transform="matrix(0.06172839506172839,0,0,0.06172839506172839,6.172839506172839,0)"
           xlink:href="#al"
           id="use279" />
        <use
           transform="matrix(0.06172839506172839,0,0,0.06172839506172839,22.160493827160494,0)"
           xlink:href="#am"
           id="use281" />
        <use
           transform="matrix(0.06172839506172839,0,0,0.06172839506172839,35.67901234567901,0)"
           xlink:href="#an"
           id="use283" />
        <use
           transform="matrix(0.06172839506172839,0,0,0.06172839506172839,50.49382716049382,0)"
           xlink:href="#ao"
           id="use285" />
        <use
           transform="matrix(0.06172839506172839,0,0,0.06172839506172839,67.77777777777777,0)"
           xlink:href="#an"
           id="use287" />
        <use
           transform="matrix(0.06172839506172839,0,0,0.06172839506172839,82.59259259259258,0)"
           xlink:href="#ap"
           id="use289" />
      </g>
      <path
         d="M117-194c89-4 53 116 60 194h-32v-121c0-31-8-49-39-48C34-167 62-67 57 0H25l-1-190h30c1 10-1 24 2 32 11-22 29-35 61-36"
         id="aq" />
      <path
         d="M141-36C126-15 110 5 73 4 37 3 15-17 15-53c-1-64 63-63 125-63 3-35-9-54-41-54-24 1-41 7-42 31l-33-3c5-37 33-52 76-52 45 0 72 20 72 64v82c-1 20 7 32 28 27v20c-31 9-61-2-59-35zM48-53c0 20 12 33 32 33 41-3 63-29 60-74-43 2-92-5-92 41"
         id="ar" />
      <path
         d="M210-169c-67 3-38 105-44 169h-31v-121c0-29-5-50-35-48C34-165 62-65 56 0H25l-1-190h30c1 10-1 24 2 32 10-44 99-50 107 0 11-21 27-35 58-36 85-2 47 119 55 194h-31v-121c0-29-5-49-35-48"
         id="as" />
      <path
         d="M100-194c63 0 86 42 84 106H49c0 40 14 67 53 68 26 1 43-12 49-29l28 8c-11 28-37 45-77 45C44 4 14-33 15-96c1-61 26-98 85-98zm52 81c6-60-76-77-97-28-3 7-6 17-6 28h103"
         id="at" />
      <g
         id="e">
        <use
           transform="matrix(0.05925925925925927,0,0,0.05925925925925927,0,0)"
           xlink:href="#aq"
           id="use296" />
        <use
           transform="matrix(0.05925925925925927,0,0,0.05925925925925927,11.851851851851853,0)"
           xlink:href="#ar"
           id="use298" />
        <use
           transform="matrix(0.05925925925925927,0,0,0.05925925925925927,23.703703703703706,0)"
           xlink:href="#as"
           id="use300" />
        <use
           transform="matrix(0.05925925925925927,0,0,0.05925925925925927,41.42222222222223,0)"
           xlink:href="#at"
           id="use302" />
      </g>
      <path
         d="M195 0l-74-108L45 0H8l94-129-87-119h37l69 98 67-98h37l-84 118L233 0h-38"
         id="au" />
      <g
         id="f">
        <use
           transform="matrix(0.06172839506172839,0,0,0.06172839506172839,0,0)"
           xlink:href="#am"
           id="use306" />
        <use
           transform="matrix(0.06172839506172839,0,0,0.06172839506172839,13.518518518518517,0)"
           xlink:href="#an"
           id="use308" />
        <use
           transform="matrix(0.06172839506172839,0,0,0.06172839506172839,28.33333333333333,0)"
           xlink:href="#au"
           id="use310" />
        <use
           transform="matrix(0.06172839506172839,0,0,0.06172839506172839,43.14814814814814,0)"
           xlink:href="#am"
           id="use312" />
      </g>
      <path
         d="M135-143c-3-34-86-38-87 0 15 53 115 12 119 90S17 21 10-45l28-5c4 36 97 45 98 0-10-56-113-15-118-90-4-57 82-63 122-42 12 7 21 19 24 35"
         id="av" />
      <g
         id="g">
        <use
           transform="matrix(0.06172839506172839,0,0,0.06172839506172839,0,0)"
           xlink:href="#ae"
           id="use316" />
        <use
           transform="matrix(0.06172839506172839,0,0,0.06172839506172839,12.345679012345679,0)"
           xlink:href="#at"
           id="use318" />
        <use
           transform="matrix(0.06172839506172839,0,0,0.06172839506172839,24.691358024691358,0)"
           xlink:href="#av"
           id="use320" />
        <use
           transform="matrix(0.06172839506172839,0,0,0.06172839506172839,35.80246913580247,0)"
           xlink:href="#ag"
           id="use322" />
        <use
           transform="matrix(0.06172839506172839,0,0,0.06172839506172839,46.91358024691358,0)"
           xlink:href="#ac"
           id="use324" />
        <use
           transform="matrix(0.06172839506172839,0,0,0.06172839506172839,54.25925925925926,0)"
           xlink:href="#aj"
           id="use326" />
        <use
           transform="matrix(0.06172839506172839,0,0,0.06172839506172839,59.135802469135804,0)"
           xlink:href="#ab"
           id="use328" />
        <use
           transform="matrix(0.06172839506172839,0,0,0.06172839506172839,71.48148148148148,0)"
           xlink:href="#ah"
           id="use330" />
        <use
           transform="matrix(0.06172839506172839,0,0,0.06172839506172839,77.65432098765432,0)"
           xlink:href="#aj"
           id="use332" />
        <use
           transform="matrix(0.06172839506172839,0,0,0.06172839506172839,82.53086419753086,0)"
           xlink:href="#ad"
           id="use334" />
        <use
           transform="matrix(0.06172839506172839,0,0,0.06172839506172839,94.87654320987654,0)"
           xlink:href="#aq"
           id="use336" />
      </g>
      <g
         id="h">
        <use
           transform="matrix(0.06172839506172839,0,0,0.06172839506172839,0,0)"
           xlink:href="#ab"
           id="use339" />
        <use
           transform="matrix(0.06172839506172839,0,0,0.06172839506172839,12.345679012345679,0)"
           xlink:href="#ac"
           id="use341" />
        <use
           transform="matrix(0.06172839506172839,0,0,0.06172839506172839,19.691358024691358,0)"
           xlink:href="#aj"
           id="use343" />
        <use
           transform="matrix(0.06172839506172839,0,0,0.06172839506172839,24.5679012345679,0)"
           xlink:href="#ag"
           id="use345" />
        <use
           transform="matrix(0.06172839506172839,0,0,0.06172839506172839,35.67901234567901,0)"
           xlink:href="#at"
           id="use347" />
      </g>
      <path
         d="M205 0l-28-72H64L36 0H1l101-248h38L239 0h-34zm-38-99l-47-123c-12 45-31 82-46 123h93"
         id="aw" />
      <path
         d="M30 0v-248h33v221h125V0H30"
         id="ax" />
      <g
         id="i">
        <use
           transform="matrix(0.06172839506172839,0,0,0.06172839506172839,0,0)"
           xlink:href="#ap"
           id="use352" />
        <use
           transform="matrix(0.06172839506172839,0,0,0.06172839506172839,15.987654320987653,0)"
           xlink:href="#an"
           id="use354" />
        <use
           transform="matrix(0.06172839506172839,0,0,0.06172839506172839,30.80246913580247,0)"
           xlink:href="#aw"
           id="use356" />
        <use
           transform="matrix(0.06172839506172839,0,0,0.06172839506172839,45.61728395061728,0)"
           xlink:href="#ax"
           id="use358" />
      </g>
      <path
         d="M63-220v92h138v28H63V0H30v-248h175v28H63"
         id="ay" />
      <g
         id="j">
        <use
           transform="matrix(0.06172839506172839,0,0,0.06172839506172839,0,0)"
           xlink:href="#ay"
           id="use362" />
        <use
           transform="matrix(0.06172839506172839,0,0,0.06172839506172839,13.518518518518517,0)"
           xlink:href="#aa"
           id="use364" />
      </g>
      <path
         d="M177-190C167-65 218 103 67 71c-23-6-38-20-44-43l32-5c15 47 100 32 89-28v-30C133-14 115 1 83 1 29 1 15-40 15-95c0-56 16-97 71-98 29-1 48 16 59 35 1-10 0-23 2-32h30zM94-22c36 0 50-32 50-73 0-42-14-75-50-75-39 0-46 34-46 75s6 73 46 73"
         id="az" />
      <path
         d="M179-190L93 31C79 59 56 82 12 73V49c39 6 53-20 64-50L1-190h34L92-34l54-156h33"
         id="aA" />
      <g
         id="k">
        <use
           transform="matrix(0.06172839506172839,0,0,0.06172839506172839,0,0)"
           xlink:href="#ag"
           id="use369" />
        <use
           transform="matrix(0.06172839506172839,0,0,0.06172839506172839,11.11111111111111,0)"
           xlink:href="#ar"
           id="use371" />
        <use
           transform="matrix(0.06172839506172839,0,0,0.06172839506172839,23.45679012345679,0)"
           xlink:href="#ah"
           id="use373" />
        <use
           transform="matrix(0.06172839506172839,0,0,0.06172839506172839,29.62962962962963,0)"
           xlink:href="#at"
           id="use375" />
        <use
           transform="matrix(0.06172839506172839,0,0,0.06172839506172839,41.97530864197531,0)"
           xlink:href="#az"
           id="use377" />
        <use
           transform="matrix(0.06172839506172839,0,0,0.06172839506172839,54.32098765432099,0)"
           xlink:href="#ad"
           id="use379" />
        <use
           transform="matrix(0.06172839506172839,0,0,0.06172839506172839,66.66666666666667,0)"
           xlink:href="#ac"
           id="use381" />
        <use
           transform="matrix(0.06172839506172839,0,0,0.06172839506172839,74.01234567901236,0)"
           xlink:href="#aA"
           id="use383" />
        <use
           transform="matrix(0.06172839506172839,0,0,0.06172839506172839,85.12345679012347,0)"
           xlink:href="#ai"
           id="use385" />
        <use
           transform="matrix(0.06172839506172839,0,0,0.06172839506172839,97.46913580246915,0)"
           xlink:href="#aj"
           id="use387" />
        <use
           transform="matrix(0.06172839506172839,0,0,0.06172839506172839,102.3456790123457,0)"
           xlink:href="#ae"
           id="use389" />
      </g>
      <path
         d="M24 0v-261h32V0H24"
         id="aB" />
      <g
         id="l">
        <use
           transform="matrix(0.05925925925925927,0,0,0.05925925925925927,0,0)"
           xlink:href="#av"
           id="use393" />
        <use
           transform="matrix(0.05925925925925927,0,0,0.05925925925925927,10.666666666666668,0)"
           xlink:href="#af"
           id="use395" />
        <use
           transform="matrix(0.05925925925925927,0,0,0.05925925925925927,22.51851851851852,0)"
           xlink:href="#ab"
           id="use397" />
        <use
           transform="matrix(0.05925925925925927,0,0,0.05925925925925927,34.370370370370374,0)"
           xlink:href="#ab"
           id="use399" />
        <use
           transform="matrix(0.05925925925925927,0,0,0.05925925925925927,46.22222222222223,0)"
           xlink:href="#aB"
           id="use401" />
        <use
           transform="matrix(0.05925925925925927,0,0,0.05925925925925927,50.90370370370371,0)"
           xlink:href="#aj"
           id="use403" />
        <use
           transform="matrix(0.05925925925925927,0,0,0.05925925925925927,55.585185185185196,0)"
           xlink:href="#at"
           id="use405" />
        <use
           transform="matrix(0.05925925925925927,0,0,0.05925925925925927,67.43703703703704,0)"
           xlink:href="#ac"
           id="use407" />
        <use
           transform="matrix(0.05925925925925927,0,0,0.05925925925925927,74.4888888888889,0)"
           xlink:href="#ai"
           id="use409" />
        <use
           transform="matrix(0.05925925925925927,0,0,0.05925925925925927,86.34074074074074,0)"
           xlink:href="#aj"
           id="use411" />
        <use
           transform="matrix(0.05925925925925927,0,0,0.05925925925925927,91.02222222222223,0)"
           xlink:href="#ae"
           id="use413" />
      </g>
      <path
         d="M143 0L79-87 56-68V0H24v-261h32v163l83-92h37l-77 82L181 0h-38"
         id="aC" />
      <path
         d="M108 0H70L1-190h34L89-25l56-165h34"
         id="aD" />
      <g
         id="m">
        <use
           transform="matrix(0.05925925925925927,0,0,0.05925925925925927,0,0)"
           xlink:href="#av"
           id="use418" />
        <use
           transform="matrix(0.05925925925925927,0,0,0.05925925925925927,10.666666666666668,0)"
           xlink:href="#ah"
           id="use420" />
        <use
           transform="matrix(0.05925925925925927,0,0,0.05925925925925927,16.592592592592595,0)"
           xlink:href="#ad"
           id="use422" />
        <use
           transform="matrix(0.05925925925925927,0,0,0.05925925925925927,28.44444444444445,0)"
           xlink:href="#ag"
           id="use424" />
        <use
           transform="matrix(0.05925925925925927,0,0,0.05925925925925927,39.111111111111114,0)"
           xlink:href="#aC"
           id="use426" />
        <use
           transform="matrix(0.05925925925925927,0,0,0.05925925925925927,49.777777777777786,0)"
           xlink:href="#ai"
           id="use428" />
        <use
           transform="matrix(0.05925925925925927,0,0,0.05925925925925927,61.62962962962964,0)"
           xlink:href="#aB"
           id="use430" />
        <use
           transform="matrix(0.05925925925925927,0,0,0.05925925925925927,66.31111111111112,0)"
           xlink:href="#at"
           id="use432" />
        <use
           transform="matrix(0.05925925925925927,0,0,0.05925925925925927,78.16296296296296,0)"
           xlink:href="#aD"
           id="use434" />
        <use
           transform="matrix(0.05925925925925927,0,0,0.05925925925925927,88.82962962962964,0)"
           xlink:href="#at"
           id="use436" />
        <use
           transform="matrix(0.05925925925925927,0,0,0.05925925925925927,100.68148148148148,0)"
           xlink:href="#aB"
           id="use438" />
      </g>
      <path
         fill="#fff"
         d="M67-125c0 53 21 87 73 88 37 1 54-22 65-47l45 17C233-25 199 4 140 4 58 4 20-42 15-125 8-235 124-281 211-232c18 10 29 29 36 50l-46 12c-8-25-30-41-62-41-52 0-71 34-72 86"
         id="aE" />
      <path
         fill="#fff"
         d="M133-34C117-15 103 5 69 4 32 3 11-16 11-54c-1-60 55-63 116-61 1-26-3-47-28-47-18 1-26 9-28 27l-52-2c7-38 36-58 82-57s74 22 75 68l1 82c-1 14 12 18 25 15v27c-30 8-71 5-69-32zm-48 3c29 0 43-24 42-57-32 0-66-3-65 30 0 17 8 27 23 27"
         id="aF" />
      <path
         fill="#fff"
         d="M185-48c-13 30-37 53-82 52C43 2 14-33 14-96s30-98 90-98c62 0 83 45 84 108H66c0 31 8 55 39 56 18 0 30-7 34-22zm-45-69c5-46-57-63-70-21-2 6-4 13-4 21h74"
         id="aG" />
      <path
         fill="#fff"
         d="M195-6C206 82 75 100 31 46c-4-6-6-13-8-21l49-6c3 16 16 24 34 25 40 0 42-37 40-79-11 22-30 35-61 35-53 0-70-43-70-97 0-56 18-96 73-97 30 0 46 14 59 34l2-30h47zm-90-29c32 0 41-27 41-63 0-35-9-62-40-62-32 0-39 29-40 63 0 36 9 62 39 62"
         id="aH" />
      <path
         fill="#fff"
         d="M123 10C108 53 80 86 19 72V37c35 8 53-11 59-39L3-190h52l48 148c12-52 28-100 44-148h51"
         id="aI" />
      <g
         id="n">
        <use
           transform="matrix(0.06172839506172839,0,0,0.06172839506172839,0,0)"
           xlink:href="#aE"
           id="use446" />
        <use
           transform="matrix(0.06172839506172839,0,0,0.06172839506172839,15.987654320987653,0)"
           xlink:href="#aF"
           id="use448" />
        <use
           transform="matrix(0.06172839506172839,0,0,0.06172839506172839,28.333333333333332,0)"
           xlink:href="#Y"
           id="use450" />
        <use
           transform="matrix(0.06172839506172839,0,0,0.06172839506172839,35.67901234567901,0)"
           xlink:href="#aG"
           id="use452" />
        <use
           transform="matrix(0.06172839506172839,0,0,0.06172839506172839,48.02469135802469,0)"
           xlink:href="#aH"
           id="use454" />
        <use
           transform="matrix(0.06172839506172839,0,0,0.06172839506172839,61.54320987654321,0)"
           xlink:href="#U"
           id="use456" />
        <use
           transform="matrix(0.06172839506172839,0,0,0.06172839506172839,75.06172839506172,0)"
           xlink:href="#T"
           id="use458" />
        <use
           transform="matrix(0.06172839506172839,0,0,0.06172839506172839,83.7037037037037,0)"
           xlink:href="#aI"
           id="use460" />
      </g>
      <g
         id="o">
        <use
           transform="matrix(0.06172839506172839,0,0,0.06172839506172839,0,0)"
           xlink:href="#Z"
           id="use463" />
        <use
           transform="matrix(0.06172839506172839,0,0,0.06172839506172839,14.814814814814813,0)"
           xlink:href="#aa"
           id="use465" />
      </g>
      <g
         id="p">
        <use
           transform="matrix(0.06172839506172839,0,0,0.06172839506172839,0,0)"
           xlink:href="#ak"
           id="use468" />
        <use
           transform="matrix(0.06172839506172839,0,0,0.06172839506172839,6.172839506172839,0)"
           xlink:href="#al"
           id="use470" />
        <use
           transform="matrix(0.06172839506172839,0,0,0.06172839506172839,22.160493827160494,0)"
           xlink:href="#am"
           id="use472" />
        <use
           transform="matrix(0.06172839506172839,0,0,0.06172839506172839,35.67901234567901,0)"
           xlink:href="#an"
           id="use474" />
        <use
           transform="matrix(0.06172839506172839,0,0,0.06172839506172839,50.49382716049382,0)"
           xlink:href="#ao"
           id="use476" />
        <use
           transform="matrix(0.06172839506172839,0,0,0.06172839506172839,67.77777777777777,0)"
           xlink:href="#an"
           id="use478" />
        <use
           transform="matrix(0.06172839506172839,0,0,0.06172839506172839,82.59259259259258,0)"
           xlink:href="#ap"
           id="use480" />
      </g>
      <g
         id="q">
        <use
           transform="matrix(0.05925925925925927,0,0,0.05925925925925927,0,0)"
           xlink:href="#ag"
           id="use483" />
        <use
           transform="matrix(0.05925925925925927,0,0,0.05925925925925927,10.666666666666668,0)"
           xlink:href="#ar"
           id="use485" />
        <use
           transform="matrix(0.05925925925925927,0,0,0.05925925925925927,22.51851851851852,0)"
           xlink:href="#ah"
           id="use487" />
        <use
           transform="matrix(0.05925925925925927,0,0,0.05925925925925927,28.444444444444446,0)"
           xlink:href="#at"
           id="use489" />
        <use
           transform="matrix(0.05925925925925927,0,0,0.05925925925925927,40.2962962962963,0)"
           xlink:href="#az"
           id="use491" />
        <use
           transform="matrix(0.05925925925925927,0,0,0.05925925925925927,52.14814814814815,0)"
           xlink:href="#ad"
           id="use493" />
        <use
           transform="matrix(0.05925925925925927,0,0,0.05925925925925927,64,0)"
           xlink:href="#ac"
           id="use495" />
        <use
           transform="matrix(0.05925925925925927,0,0,0.05925925925925927,71.05185185185185,0)"
           xlink:href="#aA"
           id="use497" />
        <use
           transform="matrix(0.05925925925925927,0,0,0.05925925925925927,81.71851851851852,0)"
           xlink:href="#ai"
           id="use499" />
        <use
           transform="matrix(0.05925925925925927,0,0,0.05925925925925927,93.57037037037037,0)"
           xlink:href="#aq"
           id="use501" />
        <use
           transform="matrix(0.05925925925925927,0,0,0.05925925925925927,105.42222222222222,0)"
           xlink:href="#ar"
           id="use503" />
        <use
           transform="matrix(0.05925925925925927,0,0,0.05925925925925927,117.27407407407406,0)"
           xlink:href="#as"
           id="use505" />
        <use
           transform="matrix(0.05925925925925927,0,0,0.05925925925925927,134.9925925925926,0)"
           xlink:href="#at"
           id="use507" />
      </g>
      <g
         id="r">
        <use
           transform="matrix(0.06172839506172839,0,0,0.06172839506172839,0,0)"
           xlink:href="#am"
           id="use510" />
        <use
           transform="matrix(0.06172839506172839,0,0,0.06172839506172839,13.518518518518517,0)"
           xlink:href="#an"
           id="use512" />
        <use
           transform="matrix(0.06172839506172839,0,0,0.06172839506172839,28.33333333333333,0)"
           xlink:href="#au"
           id="use514" />
        <use
           transform="matrix(0.06172839506172839,0,0,0.06172839506172839,43.14814814814814,0)"
           xlink:href="#am"
           id="use516" />
      </g>
      <path
         fill="#fff"
         d="M169-182c-1-43-94-46-97-3 18 66 151 10 154 114 3 95-165 93-204 36-6-8-10-19-12-30l50-8c3 46 112 56 116 5-17-69-150-10-154-114-4-87 153-88 188-35 5 8 8 18 10 28"
         id="aJ" />
      <path
         fill="#fff"
         d="M135-194c53 0 70 44 70 98 0 56-19 98-73 100-31 1-45-17-59-34 3 33 2 69 2 105H25l-1-265h48c2 10 0 23 3 31 11-24 29-35 60-35zM114-30c33 0 39-31 40-66 0-38-9-64-40-64-56 0-55 130 0 130"
         id="aK" />
      <path
         fill="#fff"
         d="M25 0v-261h50V0H25"
         id="aL" />
      <path
         fill="#fff"
         d="M25-224v-37h50v37H25zM25 0v-190h50V0H25"
         id="aM" />
      <g
         id="s">
        <use
           transform="matrix(0.06172839506172839,0,0,0.06172839506172839,0,0)"
           xlink:href="#aJ"
           id="use523" />
        <use
           transform="matrix(0.06172839506172839,0,0,0.06172839506172839,14.814814814814813,0)"
           xlink:href="#W"
           id="use525" />
        <use
           transform="matrix(0.06172839506172839,0,0,0.06172839506172839,28.33333333333333,0)"
           xlink:href="#aK"
           id="use527" />
        <use
           transform="matrix(0.06172839506172839,0,0,0.06172839506172839,41.85185185185185,0)"
           xlink:href="#aK"
           id="use529" />
        <use
           transform="matrix(0.06172839506172839,0,0,0.06172839506172839,55.37037037037037,0)"
           xlink:href="#aL"
           id="use531" />
        <use
           transform="matrix(0.06172839506172839,0,0,0.06172839506172839,61.54320987654321,0)"
           xlink:href="#aM"
           id="use533" />
        <use
           transform="matrix(0.06172839506172839,0,0,0.06172839506172839,67.71604938271605,0)"
           xlink:href="#aG"
           id="use535" />
        <use
           transform="matrix(0.06172839506172839,0,0,0.06172839506172839,80.06172839506173,0)"
           xlink:href="#T"
           id="use537" />
      </g>
      <g
         id="t">
        <use
           transform="matrix(0.06172839506172839,0,0,0.06172839506172839,0,0)"
           xlink:href="#aq"
           id="use540" />
        <use
           transform="matrix(0.06172839506172839,0,0,0.06172839506172839,12.345679012345679,0)"
           xlink:href="#ar"
           id="use542" />
        <use
           transform="matrix(0.06172839506172839,0,0,0.06172839506172839,24.691358024691358,0)"
           xlink:href="#as"
           id="use544" />
        <use
           transform="matrix(0.06172839506172839,0,0,0.06172839506172839,43.148148148148145,0)"
           xlink:href="#at"
           id="use546" />
      </g>
      <path
         d="M101-234c-31-9-42 10-38 44h38v23H63V0H32v-167H5v-23h27c-7-52 17-82 69-68v24"
         id="aN" />
      <g
         id="u">
        <use
           transform="matrix(0.06172839506172839,0,0,0.06172839506172839,0,0)"
           xlink:href="#ag"
           id="use550" />
        <use
           transform="matrix(0.06172839506172839,0,0,0.06172839506172839,11.11111111111111,0)"
           xlink:href="#ad"
           id="use552" />
        <use
           transform="matrix(0.06172839506172839,0,0,0.06172839506172839,23.45679012345679,0)"
           xlink:href="#aq"
           id="use554" />
        <use
           transform="matrix(0.06172839506172839,0,0,0.06172839506172839,35.80246913580247,0)"
           xlink:href="#ah"
           id="use556" />
        <use
           transform="matrix(0.06172839506172839,0,0,0.06172839506172839,41.97530864197531,0)"
           xlink:href="#ar"
           id="use558" />
        <use
           transform="matrix(0.06172839506172839,0,0,0.06172839506172839,54.32098765432099,0)"
           xlink:href="#ag"
           id="use560" />
        <use
           transform="matrix(0.06172839506172839,0,0,0.06172839506172839,65.4320987654321,0)"
           xlink:href="#ah"
           id="use562" />
        <use
           transform="matrix(0.06172839506172839,0,0,0.06172839506172839,71.60493827160494,0)"
           xlink:href="#ai"
           id="use564" />
        <use
           transform="matrix(0.06172839506172839,0,0,0.06172839506172839,83.95061728395062,0)"
           xlink:href="#aj"
           id="use566" />
        <use
           transform="matrix(0.06172839506172839,0,0,0.06172839506172839,88.82716049382717,0)"
           xlink:href="#aq"
           id="use568" />
        <use
           transform="matrix(0.06172839506172839,0,0,0.06172839506172839,101.17283950617285,0)"
           xlink:href="#aN"
           id="use570" />
        <use
           transform="matrix(0.06172839506172839,0,0,0.06172839506172839,107.34567901234568,0)"
           xlink:href="#ad"
           id="use572" />
      </g>
      <path
         fill="#fff"
         d="M24 0v-248h52V0H24"
         id="aO" />
      <path
         fill="#fff"
         d="M135-194c87-1 58 113 63 194h-50c-7-57 23-157-34-157-59 0-34 97-39 157H25l-1-190h47c2 12-1 28 3 38 12-26 28-41 61-42"
         id="aP" />
      <path
         fill="#fff"
         d="M128 0H69L1-190h53L99-40l48-150h52"
         id="aQ" />
      <g
         id="v">
        <use
           transform="matrix(0.05925925925925927,0,0,0.05925925925925927,0,0)"
           xlink:href="#aO"
           id="use578" />
        <use
           transform="matrix(0.05925925925925927,0,0,0.05925925925925927,5.9259259259259265,0)"
           xlink:href="#aP"
           id="use580" />
        <use
           transform="matrix(0.05925925925925927,0,0,0.05925925925925927,18.903703703703705,0)"
           xlink:href="#aQ"
           id="use582" />
        <use
           transform="matrix(0.05925925925925927,0,0,0.05925925925925927,30.75555555555556,0)"
           xlink:href="#aG"
           id="use584" />
        <use
           transform="matrix(0.05925925925925927,0,0,0.05925925925925927,42.607407407407415,0)"
           xlink:href="#aP"
           id="use586" />
        <use
           transform="matrix(0.05925925925925927,0,0,0.05925925925925927,55.585185185185196,0)"
           xlink:href="#Y"
           id="use588" />
        <use
           transform="matrix(0.05925925925925927,0,0,0.05925925925925927,62.63703703703705,0)"
           xlink:href="#U"
           id="use590" />
        <use
           transform="matrix(0.05925925925925927,0,0,0.05925925925925927,75.61481481481482,0)"
           xlink:href="#T"
           id="use592" />
        <use
           transform="matrix(0.05925925925925927,0,0,0.05925925925925927,83.91111111111113,0)"
           xlink:href="#aI"
           id="use594" />
      </g>
      <path
         fill="#fff"
         d="M136-208V0H84v-208H4v-40h212v40h-80"
         id="aR" />
      <path
         fill="#fff"
         d="M137-138c1-29-70-34-71-4 15 46 118 7 119 86 1 83-164 76-172 9l43-7c4 19 20 25 44 25 33 8 57-30 24-41C81-84 22-81 20-136c-2-80 154-74 161-7"
         id="aS" />
      <g
         id="w">
        <use
           transform="matrix(0.05925925925925927,0,0,0.05925925925925927,0,0)"
           xlink:href="#aR"
           id="use599" />
        <use
           transform="matrix(0.05925925925925927,0,0,0.05925925925925927,11.792592592592595,0)"
           xlink:href="#T"
           id="use601" />
        <use
           transform="matrix(0.05925925925925927,0,0,0.05925925925925927,20.088888888888892,0)"
           xlink:href="#aF"
           id="use603" />
        <use
           transform="matrix(0.05925925925925927,0,0,0.05925925925925927,31.940740740740747,0)"
           xlink:href="#aP"
           id="use605" />
        <use
           transform="matrix(0.05925925925925927,0,0,0.05925925925925927,44.918518518518525,0)"
           xlink:href="#aS"
           id="use607" />
        <use
           transform="matrix(0.05925925925925927,0,0,0.05925925925925927,56.77037037037038,0)"
           xlink:href="#aF"
           id="use609" />
        <use
           transform="matrix(0.05925925925925927,0,0,0.05925925925925927,68.62222222222223,0)"
           xlink:href="#X"
           id="use611" />
        <use
           transform="matrix(0.05925925925925927,0,0,0.05925925925925927,80.47407407407408,0)"
           xlink:href="#Y"
           id="use613" />
        <use
           transform="matrix(0.05925925925925927,0,0,0.05925925925925927,87.52592592592593,0)"
           xlink:href="#aM"
           id="use615" />
        <use
           transform="matrix(0.05925925925925927,0,0,0.05925925925925927,93.45185185185186,0)"
           xlink:href="#U"
           id="use617" />
        <use
           transform="matrix(0.05925925925925927,0,0,0.05925925925925927,106.42962962962963,0)"
           xlink:href="#aP"
           id="use619" />
      </g>
      <g
         id="x">
        <use
           transform="matrix(0.05925925925925927,0,0,0.05925925925925927,0,0)"
           xlink:href="#ah"
           id="use622" />
        <use
           transform="matrix(0.05925925925925927,0,0,0.05925925925925927,5.9259259259259265,0)"
           xlink:href="#ac"
           id="use624" />
        <use
           transform="matrix(0.05925925925925927,0,0,0.05925925925925927,12.97777777777778,0)"
           xlink:href="#ar"
           id="use626" />
        <use
           transform="matrix(0.05925925925925927,0,0,0.05925925925925927,24.829629629629633,0)"
           xlink:href="#aq"
           id="use628" />
        <use
           transform="matrix(0.05925925925925927,0,0,0.05925925925925927,36.681481481481484,0)"
           xlink:href="#av"
           id="use630" />
        <use
           transform="matrix(0.05925925925925927,0,0,0.05925925925925927,47.348148148148155,0)"
           xlink:href="#ar"
           id="use632" />
        <use
           transform="matrix(0.05925925925925927,0,0,0.05925925925925927,59.20000000000001,0)"
           xlink:href="#ag"
           id="use634" />
        <use
           transform="matrix(0.05925925925925927,0,0,0.05925925925925927,69.86666666666667,0)"
           xlink:href="#ah"
           id="use636" />
        <use
           transform="matrix(0.05925925925925927,0,0,0.05925925925925927,75.7925925925926,0)"
           xlink:href="#aj"
           id="use638" />
        <use
           transform="matrix(0.05925925925925927,0,0,0.05925925925925927,80.47407407407408,0)"
           xlink:href="#ad"
           id="use640" />
        <use
           transform="matrix(0.05925925925925927,0,0,0.05925925925925927,92.32592592592593,0)"
           xlink:href="#aq"
           id="use642" />
        <use
           transform="matrix(0.05925925925925927,0,0,0.05925925925925927,104.17777777777778,0)"
           xlink:href="#ai"
           id="use644" />
        <use
           transform="matrix(0.05925925925925927,0,0,0.05925925925925927,116.02962962962962,0)"
           xlink:href="#aj"
           id="use646" />
        <use
           transform="matrix(0.05925925925925927,0,0,0.05925925925925927,120.71111111111111,0)"
           xlink:href="#ae"
           id="use648" />
      </g>
      <g
         id="y">
        <use
           transform="matrix(0.05925925925925927,0,0,0.05925925925925927,0,0)"
           xlink:href="#ah"
           id="use651" />
        <use
           transform="matrix(0.05925925925925927,0,0,0.05925925925925927,5.9259259259259265,0)"
           xlink:href="#ac"
           id="use653" />
        <use
           transform="matrix(0.05925925925925927,0,0,0.05925925925925927,12.97777777777778,0)"
           xlink:href="#ar"
           id="use655" />
        <use
           transform="matrix(0.05925925925925927,0,0,0.05925925925925927,24.829629629629633,0)"
           xlink:href="#aq"
           id="use657" />
        <use
           transform="matrix(0.05925925925925927,0,0,0.05925925925925927,36.681481481481484,0)"
           xlink:href="#av"
           id="use659" />
        <use
           transform="matrix(0.05925925925925927,0,0,0.05925925925925927,47.348148148148155,0)"
           xlink:href="#ar"
           id="use661" />
        <use
           transform="matrix(0.05925925925925927,0,0,0.05925925925925927,59.20000000000001,0)"
           xlink:href="#ag"
           id="use663" />
        <use
           transform="matrix(0.05925925925925927,0,0,0.05925925925925927,69.86666666666667,0)"
           xlink:href="#ah"
           id="use665" />
        <use
           transform="matrix(0.05925925925925927,0,0,0.05925925925925927,75.7925925925926,0)"
           xlink:href="#aj"
           id="use667" />
        <use
           transform="matrix(0.05925925925925927,0,0,0.05925925925925927,80.47407407407408,0)"
           xlink:href="#ad"
           id="use669" />
        <use
           transform="matrix(0.05925925925925927,0,0,0.05925925925925927,92.32592592592593,0)"
           xlink:href="#aq"
           id="use671" />
        <use
           transform="matrix(0.05925925925925927,0,0,0.05925925925925927,104.17777777777778,0)"
           xlink:href="#ai"
           id="use673" />
        <use
           transform="matrix(0.05925925925925927,0,0,0.05925925925925927,116.02962962962962,0)"
           xlink:href="#ah"
           id="use675" />
        <use
           transform="matrix(0.05925925925925927,0,0,0.05925925925925927,121.95555555555555,0)"
           xlink:href="#aA"
           id="use677" />
        <use
           transform="matrix(0.05925925925925927,0,0,0.05925925925925927,132.6222222222222,0)"
           xlink:href="#ab"
           id="use679" />
        <use
           transform="matrix(0.05925925925925927,0,0,0.05925925925925927,144.47407407407405,0)"
           xlink:href="#at"
           id="use681" />
      </g>
      <g
         id="z">
        <use
           transform="matrix(0.06172839506172839,0,0,0.06172839506172839,0,0)"
           xlink:href="#ay"
           id="use684" />
        <use
           transform="matrix(0.06172839506172839,0,0,0.06172839506172839,13.518518518518517,0)"
           xlink:href="#aa"
           id="use686" />
      </g>
      <g
         id="A">
        <use
           transform="matrix(0.05925925925925927,0,0,0.05925925925925927,0,0)"
           xlink:href="#ab"
           id="use689" />
        <use
           transform="matrix(0.05925925925925927,0,0,0.05925925925925927,11.851851851851853,0)"
           xlink:href="#ac"
           id="use691" />
        <use
           transform="matrix(0.05925925925925927,0,0,0.05925925925925927,18.903703703703705,0)"
           xlink:href="#ad"
           id="use693" />
        <use
           transform="matrix(0.05925925925925927,0,0,0.05925925925925927,30.75555555555556,0)"
           xlink:href="#ae"
           id="use695" />
        <use
           transform="matrix(0.05925925925925927,0,0,0.05925925925925927,42.607407407407415,0)"
           xlink:href="#af"
           id="use697" />
        <use
           transform="matrix(0.05925925925925927,0,0,0.05925925925925927,54.45925925925927,0)"
           xlink:href="#ag"
           id="use699" />
        <use
           transform="matrix(0.05925925925925927,0,0,0.05925925925925927,65.12592592592594,0)"
           xlink:href="#ah"
           id="use701" />
        <use
           transform="matrix(0.05925925925925927,0,0,0.05925925925925927,71.05185185185186,0)"
           xlink:href="#ai"
           id="use703" />
        <use
           transform="matrix(0.05925925925925927,0,0,0.05925925925925927,82.90370370370371,0)"
           xlink:href="#aj"
           id="use705" />
        <use
           transform="matrix(0.05925925925925927,0,0,0.05925925925925927,87.5851851851852,0)"
           xlink:href="#ae"
           id="use707" />
      </g>
      <path
         d="M145-31C134-9 116 4 85 4 32 4 16-35 15-94c0-59 17-99 70-100 32-1 48 14 60 33 0-11-1-24 2-32h30l-1 268h-32zM93-21c41 0 51-33 51-76s-8-73-50-73c-40 0-46 35-46 75s5 74 45 74"
         id="aT" />
      <g
         id="B">
        <use
           transform="matrix(0.05925925925925927,0,0,0.05925925925925927,0,0)"
           xlink:href="#aT"
           id="use711" />
        <use
           transform="matrix(0.05925925925925927,0,0,0.05925925925925927,11.851851851851853,0)"
           xlink:href="#af"
           id="use713" />
        <use
           transform="matrix(0.05925925925925927,0,0,0.05925925925925927,23.703703703703706,0)"
           xlink:href="#ar"
           id="use715" />
        <use
           transform="matrix(0.05925925925925927,0,0,0.05925925925925927,35.55555555555556,0)"
           xlink:href="#aq"
           id="use717" />
        <use
           transform="matrix(0.05925925925925927,0,0,0.05925925925925927,47.40740740740741,0)"
           xlink:href="#ah"
           id="use719" />
        <use
           transform="matrix(0.05925925925925927,0,0,0.05925925925925927,53.333333333333336,0)"
           xlink:href="#aj"
           id="use721" />
        <use
           transform="matrix(0.05925925925925927,0,0,0.05925925925925927,58.01481481481482,0)"
           xlink:href="#ah"
           id="use723" />
        <use
           transform="matrix(0.05925925925925927,0,0,0.05925925925925927,63.940740740740736,0)"
           xlink:href="#aA"
           id="use725" />
      </g>
      <g
         id="C">
        <use
           transform="matrix(0.05925925925925927,0,0,0.05925925925925927,0,0)"
           xlink:href="#ah"
           id="use728" />
        <use
           transform="matrix(0.05925925925925927,0,0,0.05925925925925927,5.9259259259259265,0)"
           xlink:href="#ac"
           id="use730" />
        <use
           transform="matrix(0.05925925925925927,0,0,0.05925925925925927,12.97777777777778,0)"
           xlink:href="#ar"
           id="use732" />
        <use
           transform="matrix(0.05925925925925927,0,0,0.05925925925925927,24.829629629629633,0)"
           xlink:href="#aq"
           id="use734" />
        <use
           transform="matrix(0.05925925925925927,0,0,0.05925925925925927,36.681481481481484,0)"
           xlink:href="#av"
           id="use736" />
        <use
           transform="matrix(0.05925925925925927,0,0,0.05925925925925927,47.348148148148155,0)"
           xlink:href="#ar"
           id="use738" />
        <use
           transform="matrix(0.05925925925925927,0,0,0.05925925925925927,59.20000000000001,0)"
           xlink:href="#ag"
           id="use740" />
        <use
           transform="matrix(0.05925925925925927,0,0,0.05925925925925927,69.86666666666667,0)"
           xlink:href="#ah"
           id="use742" />
        <use
           transform="matrix(0.05925925925925927,0,0,0.05925925925925927,75.7925925925926,0)"
           xlink:href="#aj"
           id="use744" />
        <use
           transform="matrix(0.05925925925925927,0,0,0.05925925925925927,80.47407407407408,0)"
           xlink:href="#ad"
           id="use746" />
        <use
           transform="matrix(0.05925925925925927,0,0,0.05925925925925927,92.32592592592593,0)"
           xlink:href="#aq"
           id="use748" />
        <use
           transform="matrix(0.05925925925925927,0,0,0.05925925925925927,104.17777777777778,0)"
           xlink:href="#ai"
           id="use750" />
        <use
           transform="matrix(0.05925925925925927,0,0,0.05925925925925927,116.02962962962962,0)"
           xlink:href="#ae"
           id="use752" />
        <use
           transform="matrix(0.05925925925925927,0,0,0.05925925925925927,127.88148148148147,0)"
           xlink:href="#ar"
           id="use754" />
        <use
           transform="matrix(0.05925925925925927,0,0,0.05925925925925927,139.73333333333332,0)"
           xlink:href="#ah"
           id="use756" />
        <use
           transform="matrix(0.05925925925925927,0,0,0.05925925925925927,145.65925925925924,0)"
           xlink:href="#at"
           id="use758" />
      </g>
      <g
         id="D">
        <use
           transform="matrix(0.05925925925925927,0,0,0.05925925925925927,0,0)"
           xlink:href="#ah"
           id="use761" />
        <use
           transform="matrix(0.05925925925925927,0,0,0.05925925925925927,5.9259259259259265,0)"
           xlink:href="#ac"
           id="use763" />
        <use
           transform="matrix(0.05925925925925927,0,0,0.05925925925925927,12.97777777777778,0)"
           xlink:href="#ar"
           id="use765" />
        <use
           transform="matrix(0.05925925925925927,0,0,0.05925925925925927,24.829629629629633,0)"
           xlink:href="#aq"
           id="use767" />
        <use
           transform="matrix(0.05925925925925927,0,0,0.05925925925925927,36.681481481481484,0)"
           xlink:href="#av"
           id="use769" />
        <use
           transform="matrix(0.05925925925925927,0,0,0.05925925925925927,47.348148148148155,0)"
           xlink:href="#ar"
           id="use771" />
        <use
           transform="matrix(0.05925925925925927,0,0,0.05925925925925927,59.20000000000001,0)"
           xlink:href="#ag"
           id="use773" />
        <use
           transform="matrix(0.05925925925925927,0,0,0.05925925925925927,69.86666666666667,0)"
           xlink:href="#ah"
           id="use775" />
        <use
           transform="matrix(0.05925925925925927,0,0,0.05925925925925927,75.7925925925926,0)"
           xlink:href="#aj"
           id="use777" />
        <use
           transform="matrix(0.05925925925925927,0,0,0.05925925925925927,80.47407407407408,0)"
           xlink:href="#ad"
           id="use779" />
        <use
           transform="matrix(0.05925925925925927,0,0,0.05925925925925927,92.32592592592593,0)"
           xlink:href="#aq"
           id="use781" />
        <use
           transform="matrix(0.05925925925925927,0,0,0.05925925925925927,104.17777777777778,0)"
           xlink:href="#ai"
           id="use783" />
        <use
           transform="matrix(0.05925925925925927,0,0,0.05925925925925927,116.02962962962962,0)"
           xlink:href="#aD"
           id="use785" />
        <use
           transform="matrix(0.05925925925925927,0,0,0.05925925925925927,126.69629629629628,0)"
           xlink:href="#ar"
           id="use787" />
        <use
           transform="matrix(0.05925925925925927,0,0,0.05925925925925927,138.54814814814816,0)"
           xlink:href="#aB"
           id="use789" />
        <use
           transform="matrix(0.05925925925925927,0,0,0.05925925925925927,143.22962962962964,0)"
           xlink:href="#af"
           id="use791" />
        <use
           transform="matrix(0.05925925925925927,0,0,0.05925925925925927,155.0814814814815,0)"
           xlink:href="#at"
           id="use793" />
      </g>
      <g
         id="E">
        <use
           transform="matrix(0.06172839506172839,0,0,0.06172839506172839,0,0)"
           xlink:href="#ap"
           id="use796" />
        <use
           transform="matrix(0.06172839506172839,0,0,0.06172839506172839,15.987654320987653,0)"
           xlink:href="#an"
           id="use798" />
        <use
           transform="matrix(0.06172839506172839,0,0,0.06172839506172839,30.80246913580247,0)"
           xlink:href="#aw"
           id="use800" />
        <use
           transform="matrix(0.06172839506172839,0,0,0.06172839506172839,45.61728395061728,0)"
           xlink:href="#ax"
           id="use802" />
      </g>
      <g
         id="F">
        <use
           transform="matrix(0.05925925925925927,0,0,0.05925925925925927,0,0)"
           xlink:href="#ag"
           id="use805" />
        <use
           transform="matrix(0.05925925925925927,0,0,0.05925925925925927,10.666666666666668,0)"
           xlink:href="#af"
           id="use807" />
        <use
           transform="matrix(0.05925925925925927,0,0,0.05925925925925927,22.51851851851852,0)"
           xlink:href="#av"
           id="use809" />
        <use
           transform="matrix(0.05925925925925927,0,0,0.05925925925925927,33.18518518518519,0)"
           xlink:href="#ah"
           id="use811" />
        <use
           transform="matrix(0.05925925925925927,0,0,0.05925925925925927,39.111111111111114,0)"
           xlink:href="#ad"
           id="use813" />
        <use
           transform="matrix(0.05925925925925927,0,0,0.05925925925925927,50.96296296296297,0)"
           xlink:href="#as"
           id="use815" />
        <use
           transform="matrix(0.05925925925925927,0,0,0.05925925925925927,68.68148148148148,0)"
           xlink:href="#at"
           id="use817" />
        <use
           transform="matrix(0.05925925925925927,0,0,0.05925925925925927,80.53333333333333,0)"
           xlink:href="#ac"
           id="use819" />
        <use
           transform="matrix(0.05925925925925927,0,0,0.05925925925925927,87.58518518518518,0)"
           xlink:href="#ai"
           id="use821" />
        <use
           transform="matrix(0.05925925925925927,0,0,0.05925925925925927,99.43703703703703,0)"
           xlink:href="#aj"
           id="use823" />
        <use
           transform="matrix(0.05925925925925927,0,0,0.05925925925925927,104.11851851851851,0)"
           xlink:href="#ae"
           id="use825" />
      </g>
      <path
         fill="#fff"
         d="M220-157c-53 9-28 100-34 157h-49v-107c1-27-5-49-29-50C55-147 81-57 75 0H25l-1-190h47c2 12-1 28 3 38 10-53 101-56 108 0 13-22 24-43 59-42 82 1 51 116 57 194h-49v-107c-1-25-5-48-29-50"
         id="aU" />
      <g
         id="G">
        <use
           transform="matrix(0.05925925925925927,0,0,0.05925925925925927,0,0)"
           xlink:href="#aE"
           id="use829" />
        <use
           transform="matrix(0.05925925925925927,0,0,0.05925925925925927,15.34814814814815,0)"
           xlink:href="#W"
           id="use831" />
        <use
           transform="matrix(0.05925925925925927,0,0,0.05925925925925927,28.32592592592593,0)"
           xlink:href="#aS"
           id="use833" />
        <use
           transform="matrix(0.05925925925925927,0,0,0.05925925925925927,40.177777777777784,0)"
           xlink:href="#Y"
           id="use835" />
        <use
           transform="matrix(0.05925925925925927,0,0,0.05925925925925927,47.229629629629635,0)"
           xlink:href="#U"
           id="use837" />
        <use
           transform="matrix(0.05925925925925927,0,0,0.05925925925925927,60.207407407407416,0)"
           xlink:href="#aU"
           id="use839" />
        <use
           transform="matrix(0.05925925925925927,0,0,0.05925925925925927,79.17037037037038,0)"
           xlink:href="#aG"
           id="use841" />
        <use
           transform="matrix(0.05925925925925927,0,0,0.05925925925925927,91.02222222222223,0)"
           xlink:href="#T"
           id="use843" />
      </g>
      <g
         id="H">
        <use
           transform="matrix(0.05925925925925927,0,0,0.05925925925925927,0,0)"
           xlink:href="#aN"
           id="use846" />
        <use
           transform="matrix(0.05925925925925927,0,0,0.05925925925925927,5.9259259259259265,0)"
           xlink:href="#aj"
           id="use848" />
        <use
           transform="matrix(0.05925925925925927,0,0,0.05925925925925927,10.607407407407408,0)"
           xlink:href="#ac"
           id="use850" />
        <use
           transform="matrix(0.05925925925925927,0,0,0.05925925925925927,17.65925925925926,0)"
           xlink:href="#av"
           id="use852" />
        <use
           transform="matrix(0.05925925925925927,0,0,0.05925925925925927,28.32592592592593,0)"
           xlink:href="#ah"
           id="use854" />
        <use
           transform="matrix(0.05925925925925927,0,0,0.05925925925925927,34.25185185185185,0)"
           xlink:href="#ai"
           id="use856" />
        <use
           transform="matrix(0.05925925925925927,0,0,0.05925925925925927,46.10370370370371,0)"
           xlink:href="#aq"
           id="use858" />
        <use
           transform="matrix(0.05925925925925927,0,0,0.05925925925925927,57.95555555555556,0)"
           xlink:href="#ar"
           id="use860" />
        <use
           transform="matrix(0.05925925925925927,0,0,0.05925925925925927,69.80740740740741,0)"
           xlink:href="#as"
           id="use862" />
        <use
           transform="matrix(0.05925925925925927,0,0,0.05925925925925927,87.52592592592593,0)"
           xlink:href="#at"
           id="use864" />
      </g>
      <g
         id="I">
        <use
           transform="matrix(0.05925925925925927,0,0,0.05925925925925927,0,0)"
           xlink:href="#aB"
           id="use867" />
        <use
           transform="matrix(0.05925925925925927,0,0,0.05925925925925927,4.681481481481482,0)"
           xlink:href="#ar"
           id="use869" />
        <use
           transform="matrix(0.05925925925925927,0,0,0.05925925925925927,16.533333333333335,0)"
           xlink:href="#av"
           id="use871" />
        <use
           transform="matrix(0.05925925925925927,0,0,0.05925925925925927,27.200000000000003,0)"
           xlink:href="#ah"
           id="use873" />
        <use
           transform="matrix(0.05925925925925927,0,0,0.05925925925925927,33.12592592592593,0)"
           xlink:href="#ai"
           id="use875" />
        <use
           transform="matrix(0.05925925925925927,0,0,0.05925925925925927,44.97777777777778,0)"
           xlink:href="#aq"
           id="use877" />
        <use
           transform="matrix(0.05925925925925927,0,0,0.05925925925925927,56.829629629629636,0)"
           xlink:href="#ar"
           id="use879" />
        <use
           transform="matrix(0.05925925925925927,0,0,0.05925925925925927,68.68148148148148,0)"
           xlink:href="#as"
           id="use881" />
        <use
           transform="matrix(0.05925925925925927,0,0,0.05925925925925927,86.4,0)"
           xlink:href="#at"
           id="use883" />
      </g>
      <g
         id="J">
        <use
           transform="matrix(0.05925925925925927,0,0,0.05925925925925927,0,0)"
           xlink:href="#at"
           id="use886" />
        <use
           transform="matrix(0.05925925925925927,0,0,0.05925925925925927,11.851851851851853,0)"
           xlink:href="#as"
           id="use888" />
        <use
           transform="matrix(0.05925925925925927,0,0,0.05925925925925927,29.570370370370377,0)"
           xlink:href="#ar"
           id="use890" />
        <use
           transform="matrix(0.05925925925925927,0,0,0.05925925925925927,41.42222222222223,0)"
           xlink:href="#aj"
           id="use892" />
        <use
           transform="matrix(0.05925925925925927,0,0,0.05925925925925927,46.103703703703715,0)"
           xlink:href="#aB"
           id="use894" />
      </g>
      <path
         d="M106-169C34-169 62-67 57 0H25v-261h32l-1 103c12-21 28-36 61-36 89 0 53 116 60 194h-32v-121c2-32-8-49-39-48"
         id="aV" />
      <path
         d="M115-194c53 0 69 39 70 98 0 66-23 100-70 100C84 3 66-7 56-30L54 0H23l1-261h32v101c10-23 28-34 59-34zm-8 174c40 0 45-34 45-75 0-40-5-75-45-74-42 0-51 32-51 76 0 43 10 73 51 73"
         id="aW" />
      <g
         id="K">
        <use
           transform="matrix(0.05925925925925927,0,0,0.05925925925925927,0,0)"
           xlink:href="#ab"
           id="use899" />
        <use
           transform="matrix(0.05925925925925927,0,0,0.05925925925925927,11.851851851851853,0)"
           xlink:href="#aV"
           id="use901" />
        <use
           transform="matrix(0.05925925925925927,0,0,0.05925925925925927,23.703703703703706,0)"
           xlink:href="#ad"
           id="use903" />
        <use
           transform="matrix(0.05925925925925927,0,0,0.05925925925925927,35.55555555555556,0)"
           xlink:href="#aq"
           id="use905" />
        <use
           transform="matrix(0.05925925925925927,0,0,0.05925925925925927,47.40740740740741,0)"
           xlink:href="#at"
           id="use907" />
        <use
           transform="matrix(0.05925925925925927,0,0,0.05925925925925927,59.25925925925927,0)"
           xlink:href="#ai"
           id="use909" />
        <use
           transform="matrix(0.05925925925925927,0,0,0.05925925925925927,71.11111111111111,0)"
           xlink:href="#aq"
           id="use911" />
        <use
           transform="matrix(0.05925925925925927,0,0,0.05925925925925927,82.96296296296296,0)"
           xlink:href="#af"
           id="use913" />
        <use
           transform="matrix(0.05925925925925927,0,0,0.05925925925925927,94.81481481481481,0)"
           xlink:href="#as"
           id="use915" />
        <use
           transform="matrix(0.05925925925925927,0,0,0.05925925925925927,112.53333333333333,0)"
           xlink:href="#aW"
           id="use917" />
        <use
           transform="matrix(0.05925925925925927,0,0,0.05925925925925927,124.38518518518518,0)"
           xlink:href="#at"
           id="use919" />
        <use
           transform="matrix(0.05925925925925927,0,0,0.05925925925925927,136.23703703703703,0)"
           xlink:href="#ac"
           id="use921" />
      </g>
      <g
         id="L">
        <use
           transform="matrix(0.05925925925925927,0,0,0.05925925925925927,0,0)"
           xlink:href="#S"
           id="use924" />
        <use
           transform="matrix(0.05925925925925927,0,0,0.05925925925925927,14.222222222222225,0)"
           xlink:href="#T"
           id="use926" />
        <use
           transform="matrix(0.05925925925925927,0,0,0.05925925925925927,22.518518518518523,0)"
           xlink:href="#U"
           id="use928" />
        <use
           transform="matrix(0.05925925925925927,0,0,0.05925925925925927,35.4962962962963,0)"
           xlink:href="#V"
           id="use930" />
        <use
           transform="matrix(0.05925925925925927,0,0,0.05925925925925927,48.47407407407408,0)"
           xlink:href="#W"
           id="use932" />
        <use
           transform="matrix(0.05925925925925927,0,0,0.05925925925925927,61.45185185185186,0)"
           xlink:href="#X"
           id="use934" />
        <use
           transform="matrix(0.05925925925925927,0,0,0.05925925925925927,73.30370370370372,0)"
           xlink:href="#Y"
           id="use936" />
      </g>
      <g
         id="M">
        <use
           transform="matrix(0.05925925925925927,0,0,0.05925925925925927,0,0)"
           xlink:href="#aO"
           id="use939" />
        <use
           transform="matrix(0.05925925925925927,0,0,0.05925925925925927,5.9259259259259265,0)"
           xlink:href="#aU"
           id="use941" />
        <use
           transform="matrix(0.05925925925925927,0,0,0.05925925925925927,24.888888888888893,0)"
           xlink:href="#aF"
           id="use943" />
        <use
           transform="matrix(0.05925925925925927,0,0,0.05925925925925927,36.74074074074075,0)"
           xlink:href="#aH"
           id="use945" />
        <use
           transform="matrix(0.05925925925925927,0,0,0.05925925925925927,49.71851851851853,0)"
           xlink:href="#aG"
           id="use947" />
      </g>
      <g
         id="N">
        <use
           transform="matrix(0.05925925925925927,0,0,0.05925925925925927,0,0)"
           xlink:href="#aj"
           id="use950" />
        <use
           transform="matrix(0.05925925925925927,0,0,0.05925925925925927,4.681481481481482,0)"
           xlink:href="#as"
           id="use952" />
        <use
           transform="matrix(0.05925925925925927,0,0,0.05925925925925927,22.400000000000006,0)"
           xlink:href="#ar"
           id="use954" />
        <use
           transform="matrix(0.05925925925925927,0,0,0.05925925925925927,34.25185185185186,0)"
           xlink:href="#az"
           id="use956" />
        <use
           transform="matrix(0.05925925925925927,0,0,0.05925925925925927,46.103703703703715,0)"
           xlink:href="#at"
           id="use958" />
        <use
           transform="matrix(0.05925925925925927,0,0,0.05925925925925927,57.95555555555557,0)"
           xlink:href="#ai"
           id="use960" />
        <use
           transform="matrix(0.05925925925925927,0,0,0.05925925925925927,69.80740740740742,0)"
           xlink:href="#aj"
           id="use962" />
        <use
           transform="matrix(0.05925925925925927,0,0,0.05925925925925927,74.48888888888891,0)"
           xlink:href="#ae"
           id="use964" />
      </g>
      <g
         id="O">
        <use
           transform="matrix(0.06172839506172839,0,0,0.06172839506172839,0,0)"
           xlink:href="#aj"
           id="use967" />
        <use
           transform="matrix(0.06172839506172839,0,0,0.06172839506172839,4.876543209876543,0)"
           xlink:href="#as"
           id="use969" />
        <use
           transform="matrix(0.06172839506172839,0,0,0.06172839506172839,23.33333333333333,0)"
           xlink:href="#ar"
           id="use971" />
        <use
           transform="matrix(0.06172839506172839,0,0,0.06172839506172839,35.679012345679006,0)"
           xlink:href="#az"
           id="use973" />
        <use
           transform="matrix(0.06172839506172839,0,0,0.06172839506172839,48.02469135802468,0)"
           xlink:href="#at"
           id="use975" />
        <use
           transform="matrix(0.06172839506172839,0,0,0.06172839506172839,60.37037037037036,0)"
           xlink:href="#ai"
           id="use977" />
        <use
           transform="matrix(0.06172839506172839,0,0,0.06172839506172839,72.71604938271604,0)"
           xlink:href="#af"
           id="use979" />
        <use
           transform="matrix(0.06172839506172839,0,0,0.06172839506172839,85.06172839506172,0)"
           xlink:href="#ac"
           id="use981" />
        <use
           transform="matrix(0.06172839506172839,0,0,0.06172839506172839,92.4074074074074,0)"
           xlink:href="#aB"
           id="use983" />
      </g>
      <path
         d="M141 0L90-78 38 0H4l68-98-65-92h35l48 74 47-74h35l-64 92 68 98h-35"
         id="aX" />
      <g
         id="P">
        <use
           transform="matrix(0.05925925925925927,0,0,0.05925925925925927,0,0)"
           xlink:href="#aj"
           id="use987" />
        <use
           transform="matrix(0.05925925925925927,0,0,0.05925925925925927,4.681481481481482,0)"
           xlink:href="#as"
           id="use989" />
        <use
           transform="matrix(0.05925925925925927,0,0,0.05925925925925927,22.400000000000006,0)"
           xlink:href="#ar"
           id="use991" />
        <use
           transform="matrix(0.05925925925925927,0,0,0.05925925925925927,34.25185185185186,0)"
           xlink:href="#az"
           id="use993" />
        <use
           transform="matrix(0.05925925925925927,0,0,0.05925925925925927,46.103703703703715,0)"
           xlink:href="#at"
           id="use995" />
        <use
           transform="matrix(0.05925925925925927,0,0,0.05925925925925927,57.95555555555557,0)"
           xlink:href="#ai"
           id="use997" />
        <use
           transform="matrix(0.05925925925925927,0,0,0.05925925925925927,69.80740740740742,0)"
           xlink:href="#ar"
           id="use999" />
        <use
           transform="matrix(0.05925925925925927,0,0,0.05925925925925927,81.65925925925927,0)"
           xlink:href="#aB"
           id="use1001" />
        <use
           transform="matrix(0.05925925925925927,0,0,0.05925925925925927,86.34074074074076,0)"
           xlink:href="#ah"
           id="use1003" />
        <use
           transform="matrix(0.05925925925925927,0,0,0.05925925925925927,92.26666666666668,0)"
           xlink:href="#ai"
           id="use1005" />
        <use
           transform="matrix(0.05925925925925927,0,0,0.05925925925925927,104.11851851851853,0)"
           xlink:href="#ah"
           id="use1007" />
        <use
           transform="matrix(0.05925925925925927,0,0,0.05925925925925927,110.04444444444445,0)"
           xlink:href="#at"
           id="use1009" />
        <use
           transform="matrix(0.05925925925925927,0,0,0.05925925925925927,121.89629629629628,0)"
           xlink:href="#aX"
           id="use1011" />
        <use
           transform="matrix(0.05925925925925927,0,0,0.05925925925925927,132.56296296296296,0)"
           xlink:href="#ah"
           id="use1013" />
      </g>
      <g
         id="Q">
        <use
           transform="matrix(0.05925925925925927,0,0,0.05925925925925927,0,0)"
           xlink:href="#aj"
           id="use1016" />
        <use
           transform="matrix(0.05925925925925927,0,0,0.05925925925925927,4.681481481481482,0)"
           xlink:href="#as"
           id="use1018" />
        <use
           transform="matrix(0.05925925925925927,0,0,0.05925925925925927,22.400000000000006,0)"
           xlink:href="#ar"
           id="use1020" />
        <use
           transform="matrix(0.05925925925925927,0,0,0.05925925925925927,34.25185185185186,0)"
           xlink:href="#az"
           id="use1022" />
        <use
           transform="matrix(0.05925925925925927,0,0,0.05925925925925927,46.103703703703715,0)"
           xlink:href="#at"
           id="use1024" />
        <use
           transform="matrix(0.05925925925925927,0,0,0.05925925925925927,57.95555555555557,0)"
           xlink:href="#ai"
           id="use1026" />
        <use
           transform="matrix(0.05925925925925927,0,0,0.05925925925925927,69.80740740740742,0)"
           xlink:href="#ad"
           id="use1028" />
        <use
           transform="matrix(0.05925925925925927,0,0,0.05925925925925927,81.65925925925927,0)"
           xlink:href="#ac"
           id="use1030" />
        <use
           transform="matrix(0.05925925925925927,0,0,0.05925925925925927,88.71111111111112,0)"
           xlink:href="#ae"
           id="use1032" />
        <use
           transform="matrix(0.05925925925925927,0,0,0.05925925925925927,100.56296296296297,0)"
           xlink:href="#at"
           id="use1034" />
        <use
           transform="matrix(0.05925925925925927,0,0,0.05925925925925927,112.41481481481482,0)"
           xlink:href="#ac"
           id="use1036" />
      </g>
      <g
         id="R">
        <use
           transform="matrix(0.05925925925925927,0,0,0.05925925925925927,0,0)"
           xlink:href="#aN"
           id="use1039" />
        <use
           transform="matrix(0.05925925925925927,0,0,0.05925925925925927,5.9259259259259265,0)"
           xlink:href="#ad"
           id="use1041" />
        <use
           transform="matrix(0.05925925925925927,0,0,0.05925925925925927,17.77777777777778,0)"
           xlink:href="#ac"
           id="use1043" />
        <use
           transform="matrix(0.05925925925925927,0,0,0.05925925925925927,24.829629629629633,0)"
           xlink:href="#ai"
           id="use1045" />
        <use
           transform="matrix(0.05925925925925927,0,0,0.05925925925925927,36.681481481481484,0)"
           xlink:href="#ah"
           id="use1047" />
        <use
           transform="matrix(0.05925925925925927,0,0,0.05925925925925927,42.60740740740741,0)"
           xlink:href="#aV"
           id="use1049" />
        <use
           transform="matrix(0.05925925925925927,0,0,0.05925925925925927,54.45925925925926,0)"
           xlink:href="#af"
           id="use1051" />
        <use
           transform="matrix(0.05925925925925927,0,0,0.05925925925925927,66.31111111111112,0)"
           xlink:href="#as"
           id="use1053" />
        <use
           transform="matrix(0.05925925925925927,0,0,0.05925925925925927,84.02962962962964,0)"
           xlink:href="#aW"
           id="use1055" />
        <use
           transform="matrix(0.05925925925925927,0,0,0.05925925925925927,95.88148148148149,0)"
           xlink:href="#aq"
           id="use1057" />
        <use
           transform="matrix(0.05925925925925927,0,0,0.05925925925925927,107.73333333333333,0)"
           xlink:href="#ar"
           id="use1059" />
        <use
           transform="matrix(0.05925925925925927,0,0,0.05925925925925927,119.58518518518518,0)"
           xlink:href="#aj"
           id="use1061" />
        <use
           transform="matrix(0.05925925925925927,0,0,0.05925925925925927,124.26666666666667,0)"
           xlink:href="#aB"
           id="use1063" />
      </g>
    </defs>
  </g>
</svg>
